<?xml version="1.0" standalone="no"?>
<!DOCTYPE svg PUBLIC "-//W3C//DTD SVG 1.1//EN"
"http://www.w3.org/Graphics/SVG/1.1/DTD/svg11.dtd">

<svg width="490" height="120" view_box="0 0 490 120"
xmlns="http://www.w3.org/2000/svg"
xmlns:link="http://www.w3.org/1999/xlink">\n\n<desc>Généré par Mocodo 2.3.7 le Mon, 24 Jan 2022 05:27:18</desc>

<rect id="frame" x="0" y="0" width="490" height="120" fill="#f7f7f7" stroke="none" stroke-width="0"/>

<!-- Association CONTAINS -->
<line x1="254" y1="60" x2="145" y2="60" stroke="#4393c3" stroke-width="2"/>
<text x="191" y="77.0" fill="#b2182b" font-family="Verdana" font-size="12">1,1</text>
<line x1="41" y1="60" x2="145" y2="60" stroke="#4393c3" stroke-width="2"/>
<text x="78" y="77.0" fill="#b2182b" font-family="Verdana" font-size="12">0,N</text>
<g id="association-CONTAINS">
	<path d="M 171 35 a 14 14 90 0 1 14 14 V 60 h -80 V 49 a 14 14 90 0 1 14 -14" fill="#92c5de" stroke="#92c5de" stroke-width="0"/>
	<path d="M 185 60.0 v 11 a 14 14 90 0 1 -14 14 H 119 a 14 14 90 0 1 -14 -14 V 60.0 H 80" fill="#d1e5f0" stroke="#d1e5f0" stroke-width="0"/>
	<rect x="105" y="35" width="80" height="50" fill="none" rx="14" stroke="#4393c3" stroke-width="2"/>
	<line x1="105" y1="60" x2="185" y2="60" stroke="#4393c3" stroke-width="1"/>
	<text x="112" y="52.7" fill="#000000" font-family="Verdana" font-size="12">CONTAINS</text>
</g>

<!-- Association INCLUDES -->
<line x1="457" y1="60" x2="362" y2="60" stroke="#4393c3" stroke-width="2"/>
<text x="406" y="77.0" fill="#b2182b" font-family="Verdana" font-size="12">0,N</text>
<line x1="254" y1="60" x2="362" y2="60" stroke="#4393c3" stroke-width="2"/>
<text x="296" y="77.0" fill="#b2182b" font-family="Verdana" font-size="12">0,N</text>
<g id="association-INCLUDES">
	<path d="M 387 35 a 14 14 90 0 1 14 14 V 60 h -78 V 49 a 14 14 90 0 1 14 -14" fill="#92c5de" stroke="#92c5de" stroke-width="0"/>
	<path d="M 401 60.0 v 11 a 14 14 90 0 1 -14 14 H 337 a 14 14 90 0 1 -14 -14 V 60.0 H 78" fill="#d1e5f0" stroke="#d1e5f0" stroke-width="0"/>
	<rect x="323" y="35" width="78" height="50" fill="none" rx="14" stroke="#4393c3" stroke-width="2"/>
	<line x1="323" y1="60" x2="401" y2="60" stroke="#4393c3" stroke-width="1"/>
	<text x="330" y="52.7" fill="#000000" font-family="Verdana" font-size="12">INCLUDES</text>
</g>

<!-- Entity LIST -->
<g id="entity-LIST">
	<g id="frame-LIST">
		<rect x="9" y="18" width="64" height="25" fill="#f4a582" stroke="#f4a582" stroke-width="0"/>
		<rect x="9" y="43.0" width="64" height="59" fill="#fddbc7" stroke="#fddbc7" stroke-width="0"/>
		<rect x="9" y="18" width="64" height="84" fill="none" stroke="#d6604d" stroke-width="2"/>
		<line x1="9" y1="43" x2="73" y2="43" stroke="#d6604d" stroke-width="1"/>
	</g>
	<text x="27" y="35.7" fill="#000000" font-family="Verdana" font-size="12">LIST</text>
	<text x="14" y="60.8" fill="#000000" font-family="Verdana" font-size="12">code_list</text>
	<line x1="14" y1="63" x2="68" y2="63" stroke="#000000" stroke-width="1"/>
	<text x="14" y="77.8" fill="#000000" font-family="Verdana" font-size="12">name</text>
</g>

<!-- Entity CARD -->
<g id="entity-CARD">
	<g id="frame-CARD">
		<rect x="217" y="9" width="74" height="25" fill="#f4a582" stroke="#f4a582" stroke-width="0"/>
		<rect x="217" y="34.0" width="74" height="77" fill="#fddbc7" stroke="#fddbc7" stroke-width="0"/>
		<rect x="217" y="9" width="74" height="102" fill="none" stroke="#d6604d" stroke-width="2"/>
		<line x1="217" y1="34" x2="291" y2="34" stroke="#d6604d" stroke-width="1"/>
	</g>
	<text x="236" y="26.7" fill="#000000" font-family="Verdana" font-size="12">CARD</text>
	<text x="222" y="51.7" fill="#000000" font-family="Verdana" font-size="12">code_card</text>
	<line x1="222" y1="54" x2="285" y2="54" stroke="#000000" stroke-width="1"/>
	<text x="222" y="68.8" fill="#000000" font-family="Verdana" font-size="12">title</text>
	<text x="222" y="85.8" fill="#000000" font-family="Verdana" font-size="12">color</text>
	<text x="222" y="102.8" fill="#000000" font-family="Verdana" font-size="12">position</text>
</g>

<!-- Entity LABEL -->
<g id="entity-LABEL">
	<g id="frame-LABEL">
		<rect x="433" y="26" width="48" height="25" fill="#f4a582" stroke="#f4a582" stroke-width="0"/>
		<rect x="433" y="51.0" width="48" height="43" fill="#fddbc7" stroke="#fddbc7" stroke-width="0"/>
		<rect x="433" y="26" width="48" height="68" fill="none" stroke="#d6604d" stroke-width="2"/>
		<line x1="433" y1="51" x2="481" y2="51" stroke="#d6604d" stroke-width="1"/>
	</g>
	<text x="438" y="43.7" fill="#000000" font-family="Verdana" font-size="12">LABEL</text>
	<text x="438" y="68.8" fill="#000000" font-family="Verdana" font-size="12">name</text>
	<line x1="438" y1="71" x2="473" y2="71" stroke="#000000" stroke-width="1"/>
	<text x="438" y="85.8" fill="#000000" font-family="Verdana" font-size="12">color</text>
</g>
</svg>