<?xml version="1.0" standalone="no"?>
<!DOCTYPE svg PUBLIC "-//W3C//DTD SVG 1.1//EN"
"http://www.w3.org/Graphics/SVG/1.1/DTD/svg11.dtd">

<svg width="300" height="279" view_box="0 0 300 279"
xmlns="http://www.w3.org/2000/svg"
xmlns:link="http://www.w3.org/1999/xlink">\n\n<desc>Généré par Mocodo 2.3.7 le Tue, 25 Jan 2022 04:19:40</desc>

<rect id="frame" x="0" y="0" width="300" height="279" fill="#ffffbf" stroke="none" stroke-width="0"/>

<!-- Association CONTAINS -->
<line x1="41" y1="60" x2="145" y2="60" stroke="#f46d43" stroke-width="2"/>
<text x="78" y="77.0" fill="#3288bd" font-family="Verdana" font-size="12">0,N</text>
<line x1="254" y1="60" x2="145" y2="60" stroke="#f46d43" stroke-width="2"/>
<text x="191" y="52.0" fill="#3288bd" font-family="Verdana" font-size="12">1,1</text>
<g id="association-CONTAINS">
	<path d="M 171 35 a 14 14 90 0 1 14 14 V 60 h -80 V 49 a 14 14 90 0 1 14 -14" fill="#fdae61" stroke="#fdae61" stroke-width="0"/>
	<path d="M 185 60.0 v 11 a 14 14 90 0 1 -14 14 H 119 a 14 14 90 0 1 -14 -14 V 60.0 H 80" fill="#fee08b" stroke="#fee08b" stroke-width="0"/>
	<rect x="105" y="35" width="80" height="50" fill="none" rx="14" stroke="#f46d43" stroke-width="2"/>
	<line x1="105" y1="60" x2="185" y2="60" stroke="#f46d43" stroke-width="1"/>
	<text x="112" y="52.7" fill="#000000" font-family="Verdana" font-size="12">CONTAINS</text>
</g>

<!-- Association INCLUDES -->
<line x1="254" y1="60" x2="145" y2="136" stroke="#f46d43" stroke-width="2"/>
<text x="190" y="83.1131173971" fill="#3288bd" font-family="Verdana" font-size="12">0,N</text>
<line x1="145" y1="228" x2="145" y2="136" stroke="#f46d43" stroke-width="2"/>
<text x="150.0" y="178" fill="#3288bd" font-family="Verdana" font-size="12">0,N</text>
<g id="association-INCLUDES">
	<path d="M 170 111 a 14 14 90 0 1 14 14 V 136 h -78 V 125 a 14 14 90 0 1 14 -14" fill="#fdae61" stroke="#fdae61" stroke-width="0"/>
	<path d="M 184 136.0 v 11 a 14 14 90 0 1 -14 14 H 120 a 14 14 90 0 1 -14 -14 V 136.0 H 78" fill="#fee08b" stroke="#fee08b" stroke-width="0"/>
	<rect x="106" y="111" width="78" height="50" fill="none" rx="14" stroke="#f46d43" stroke-width="2"/>
	<line x1="106" y1="136" x2="184" y2="136" stroke="#f46d43" stroke-width="1"/>
	<text x="113" y="128.7" fill="#000000" font-family="Verdana" font-size="12">INCLUDES</text>
</g>

<!-- Entity LIST -->
<g id="entity-LIST">
	<g id="frame-LIST">
		<rect x="9" y="18" width="64" height="25" fill="#abdda4" stroke="#abdda4" stroke-width="0"/>
		<rect x="9" y="43.0" width="64" height="59" fill="#e6f598" stroke="#e6f598" stroke-width="0"/>
		<rect x="9" y="18" width="64" height="84" fill="none" stroke="#66c2a5" stroke-width="2"/>
		<line x1="9" y1="43" x2="73" y2="43" stroke="#66c2a5" stroke-width="1"/>
	</g>
	<text x="27" y="35.7" fill="#000000" font-family="Verdana" font-size="12">LIST</text>
	<text x="14" y="60.8" fill="#000000" font-family="Verdana" font-size="12">code_list</text>
	<line x1="14" y1="63" x2="68" y2="63" stroke="#000000" stroke-width="1"/>
	<text x="14" y="77.8" fill="#000000" font-family="Verdana" font-size="12">title</text>
	<text x="14" y="94.8" fill="#000000" font-family="Verdana" font-size="12">position</text>
</g>

<!-- Entity CARD -->
<g id="entity-CARD">
	<g id="frame-CARD">
		<rect x="217" y="9" width="74" height="25" fill="#abdda4" stroke="#abdda4" stroke-width="0"/>
		<rect x="217" y="34.0" width="74" height="77" fill="#e6f598" stroke="#e6f598" stroke-width="0"/>
		<rect x="217" y="9" width="74" height="102" fill="none" stroke="#66c2a5" stroke-width="2"/>
		<line x1="217" y1="34" x2="291" y2="34" stroke="#66c2a5" stroke-width="1"/>
	</g>
	<text x="236" y="26.7" fill="#000000" font-family="Verdana" font-size="12">CARD</text>
	<text x="222" y="51.7" fill="#000000" font-family="Verdana" font-size="12">code_card</text>
	<line x1="222" y1="54" x2="285" y2="54" stroke="#000000" stroke-width="1"/>
	<text x="222" y="68.8" fill="#000000" font-family="Verdana" font-size="12">title</text>
	<text x="222" y="85.8" fill="#000000" font-family="Verdana" font-size="12">color</text>
	<text x="222" y="102.8" fill="#000000" font-family="Verdana" font-size="12">position</text>
</g>

<!-- Entity LABEL -->
<g id="entity-LABEL">
	<g id="frame-LABEL">
		<rect x="107" y="186" width="76" height="25" fill="#abdda4" stroke="#abdda4" stroke-width="0"/>
		<rect x="107" y="211.0" width="76" height="59" fill="#e6f598" stroke="#e6f598" stroke-width="0"/>
		<rect x="107" y="186" width="76" height="84" fill="none" stroke="#66c2a5" stroke-width="2"/>
		<line x1="107" y1="211" x2="183" y2="211" stroke="#66c2a5" stroke-width="1"/>
	</g>
	<text x="126" y="203.7" fill="#000000" font-family="Verdana" font-size="12">LABEL</text>
	<text x="112" y="228.8" fill="#000000" font-family="Verdana" font-size="12">code_label</text>
	<line x1="112" y1="231" x2="177" y2="231" stroke="#000000" stroke-width="1"/>
	<text x="112" y="245.8" fill="#000000" font-family="Verdana" font-size="12">title</text>
	<text x="112" y="262.8" fill="#000000" font-family="Verdana" font-size="12">color</text>
</g>
</svg>